<svg width="20" height="22" viewBox="0 0 20 22" fill="none" xmlns="http://www.w3.org/2000/svg">
<path opacity="0.1" d="M10.166 1.94019H13.1982L14.4902 2.14429C15.6847 2.48773 16.7353 3.20831 17.4834 4.198C18.2314 5.18778 18.6369 6.39333 18.6387 7.63257V13.5291C18.8338 13.7252 19.0118 13.9394 19.167 14.1716C19.6395 14.8788 19.8916 15.7107 19.8916 16.5613C19.8891 17.701 19.4358 18.7935 18.6299 19.5994C17.824 20.4052 16.7315 20.8587 15.5918 20.8611C14.7413 20.8611 13.9094 20.609 13.2021 20.1365C13.162 20.1096 13.1241 20.0796 13.085 20.0515C13.0297 20.0534 12.9744 20.0561 12.9189 20.0564H5.79395C4.27128 20.0588 2.80979 19.4591 1.73047 18.3884C0.651064 17.3176 0.042052 15.8635 0.0371094 14.3455V7.63257C0.0388455 6.39333 0.44434 5.18778 1.19238 4.198C1.94047 3.20829 2.99111 2.48773 4.18555 2.14429L5.47852 1.92163H8.86328L10.166 1.94019Z" fill="#092E40"/>
<path d="M7.08508 11.7838C7.09064 11.9471 7.04718 12.1084 6.96031 12.2467C6.87343 12.3851 6.74711 12.4943 6.59763 12.5603C6.44814 12.6262 6.28233 12.6459 6.12155 12.6168C5.96077 12.5877 5.81239 12.5111 5.69552 12.3969C5.57865 12.2828 5.49864 12.1362 5.4658 11.9761C5.43296 11.8161 5.44879 11.6499 5.51125 11.4989C5.57372 11.3479 5.67995 11.2191 5.81628 11.129C5.9526 11.0389 6.11277 10.9917 6.27615 10.9935C6.38116 10.9923 6.48539 11.0117 6.58287 11.0508C6.68036 11.0899 6.7692 11.1477 6.84431 11.2211C6.91943 11.2945 6.97935 11.382 7.02067 11.4785C7.06198 11.5751 7.08386 11.6788 7.08508 11.7838ZM10.1069 11.7838C10.1106 11.9446 10.0663 12.1028 9.97973 12.2382C9.89312 12.3737 9.76812 12.4802 9.62067 12.5443C9.47322 12.6084 9.31002 12.6271 9.1519 12.598C8.99378 12.5689 8.84791 12.4934 8.73291 12.381C8.61791 12.2687 8.539 12.1246 8.50625 11.9672C8.4735 11.8098 8.4884 11.6462 8.54904 11.4973C8.60968 11.3484 8.71331 11.221 8.84671 11.1312C8.98011 11.0415 9.13723 10.9936 9.298 10.9935C9.40301 10.9923 9.50724 11.0117 9.60472 11.0508C9.70221 11.0899 9.79105 11.1477 9.86616 11.2211C9.94128 11.2945 10.0012 11.382 10.0425 11.4785C10.0838 11.5751 10.1057 11.6788 10.1069 11.7838ZM7.07578 14.7871C7.05428 14.9879 6.95931 15.1736 6.80912 15.3086C6.65892 15.4436 6.46413 15.5182 6.2622 15.5182C6.06028 15.5182 5.86548 15.4436 5.71529 15.3086C5.5651 15.1736 5.47012 14.9879 5.44863 14.7871C5.47012 14.5863 5.5651 14.4006 5.71529 14.2656C5.86548 14.1306 6.06028 14.056 6.2622 14.056C6.46413 14.056 6.65892 14.1306 6.80912 14.2656C6.95931 14.4006 7.05428 14.5863 7.07578 14.7871ZM15.5834 21.0446C14.7099 21.0446 13.856 20.7856 13.1297 20.3003C12.4034 19.815 11.8374 19.1253 11.5031 18.3182C11.1688 17.5112 11.0813 16.6232 11.2518 15.7665C11.4222 14.9097 11.8428 14.1228 12.4605 13.5051C13.0781 12.8875 13.8651 12.4668 14.7218 12.2964C15.5786 12.126 16.4666 12.2135 17.2736 12.5477C18.0806 12.882 18.7704 13.4481 19.2557 14.1744C19.741 14.9007 20 15.7546 20 16.6281C19.9975 17.7987 19.5314 18.9206 18.7037 19.7484C17.876 20.5761 16.754 21.0422 15.5834 21.0446ZM15.5834 13.6062C14.9858 13.6062 14.4015 13.7835 13.9046 14.1155C13.4077 14.4476 13.0203 14.9195 12.7916 15.4717C12.5629 16.0239 12.5031 16.6315 12.6197 17.2176C12.7363 17.8038 13.0241 18.3423 13.4467 18.7649C13.8693 19.1875 14.4077 19.4753 14.9939 19.5919C15.5801 19.7085 16.1877 19.6486 16.7399 19.4199C17.292 19.1912 17.764 18.8039 18.096 18.3069C18.4281 17.81 18.6053 17.2258 18.6053 16.6281C18.6053 16.2313 18.5271 15.8383 18.3753 15.4717C18.2234 15.1051 18.0008 14.7719 17.7202 14.4913C17.4396 14.2107 17.1065 13.9881 16.7399 13.8363C16.3732 13.6844 15.9803 13.6062 15.5834 13.6062ZM17.6848 16.3027L16.0948 18.3296C16.0294 18.4121 15.9459 18.4785 15.8508 18.5236C15.7557 18.5687 15.6515 18.5914 15.5463 18.59C15.4405 18.5944 15.3353 18.5731 15.2397 18.5277C15.1442 18.4823 15.0611 18.4144 14.9977 18.3296L13.854 16.8605C13.7406 16.7138 13.6901 16.528 13.7136 16.3441C13.7372 16.1601 13.8328 15.993 13.9795 15.8796C14.1263 15.7662 14.312 15.7157 14.496 15.7392C14.68 15.7628 14.847 15.8584 14.9605 16.0051L15.5463 16.7676L16.5876 15.438C16.7027 15.2943 16.8699 15.2019 17.0528 15.181C17.2357 15.1601 17.4194 15.2124 17.5639 15.3264C17.6368 15.3819 17.6979 15.4515 17.7435 15.5309C17.7892 15.6104 17.8185 15.6982 17.8297 15.7891C17.841 15.88 17.834 15.9723 17.8091 16.0605C17.7842 16.1487 17.7419 16.231 17.6848 16.3027ZM14.477 2.11392V0.728514C14.477 0.555895 14.4084 0.390346 14.2864 0.268286C14.1643 0.146226 13.9987 0.0776536 13.8261 0.0776536C13.6535 0.0776536 13.488 0.146226 13.3659 0.268286C13.2438 0.390346 13.1753 0.555895 13.1753 0.728514V1.90006H12.887H10.0976V0.728514C10.1086 0.637144 10.1001 0.544485 10.0726 0.456651C10.0452 0.368817 9.99939 0.287804 9.93833 0.218959C9.87726 0.150114 9.80229 0.0950013 9.71836 0.0572584C9.63443 0.0195154 9.54345 0 9.45142 0C9.35939 0 9.26841 0.0195154 9.18448 0.0572584C9.10055 0.0950013 9.02558 0.150114 8.96451 0.218959C8.90344 0.287804 8.85767 0.368817 8.83021 0.456651C8.80275 0.544485 8.79423 0.637144 8.80521 0.728514V1.84427H5.76476H5.46723V0.728514C5.46723 0.555895 5.39865 0.390346 5.27659 0.268286C5.15453 0.146226 4.98898 0.0776536 4.81637 0.0776536C4.64375 0.0776536 4.4782 0.146226 4.35614 0.268286C4.23408 0.390346 4.1655 0.555895 4.1655 0.728514V2.11392C2.96937 2.45456 1.91633 3.17469 1.16503 4.16581C0.413723 5.15692 0.00484794 6.36535 0 7.60904V14.3501C0.00738218 15.8725 0.618591 17.3297 1.69943 18.4018C2.78027 19.4739 4.24239 20.0733 5.76476 20.0684H10.2464C10.3306 20.0684 10.4141 20.0518 10.4919 20.0195C10.5698 19.9873 10.6405 19.94 10.7001 19.8805C10.7596 19.8209 10.8069 19.7502 10.8391 19.6723C10.8714 19.5945 10.888 19.511 10.888 19.4268C10.888 19.2566 10.8204 19.0935 10.7001 18.9731C10.5797 18.8528 10.4166 18.7852 10.2464 18.7852H5.76476C5.17911 18.7889 4.59848 18.677 4.05611 18.456C3.51375 18.235 3.0203 17.9092 2.60402 17.4972C2.18774 17.0853 1.85679 16.5952 1.63014 16.0552C1.40348 15.5152 1.28556 14.9358 1.28312 14.3501V8.2506H17.3408V11.1423C17.3432 11.3133 17.4129 11.4764 17.5347 11.5965C17.6565 11.7166 17.8206 11.7839 17.9916 11.7838C18.0767 11.7851 18.1611 11.7694 18.24 11.7377C18.3189 11.706 18.3907 11.6589 18.4513 11.5992C18.5119 11.5396 18.56 11.4684 18.5928 11.39C18.6256 11.3115 18.6425 11.2273 18.6425 11.1423V7.60904C18.6376 6.36535 18.2288 5.15692 17.4775 4.16581C16.7262 3.17469 15.6731 2.45456 14.477 2.11392ZM1.36681 6.96747C1.48095 6.1912 1.79941 5.45923 2.28956 4.84654C2.77971 4.23386 3.42392 3.76249 4.15621 3.48072V4.22456C4.15621 4.39718 4.22478 4.56273 4.34684 4.68479C4.4689 4.80685 4.63445 4.87542 4.80707 4.87542C4.97969 4.87542 5.14523 4.80685 5.26729 4.68479C5.38935 4.56273 5.45793 4.39718 5.45793 4.22456V3.20178C5.5602 3.20178 5.65318 3.20178 5.75546 3.20178H8.8424V4.22456C8.83142 4.31593 8.83994 4.40859 8.8674 4.49643C8.89486 4.58426 8.94063 4.66527 9.0017 4.73412C9.06277 4.80296 9.13774 4.85808 9.22167 4.89582C9.3056 4.93356 9.39658 4.95308 9.48861 4.95308C9.58064 4.95308 9.67162 4.93356 9.75555 4.89582C9.83948 4.85808 9.91445 4.80296 9.97552 4.73412C10.0366 4.66527 10.0824 4.58426 10.1098 4.49643C10.1373 4.40859 10.1458 4.31593 10.1348 4.22456V3.17389H12.9242H13.2125V4.19667C13.2125 4.36929 13.281 4.53484 13.4031 4.6569C13.5252 4.77896 13.6907 4.84753 13.8633 4.84753C14.0359 4.84753 14.2015 4.77896 14.3235 4.6569C14.4456 4.53484 14.5142 4.36929 14.5142 4.19667V3.45283C15.2465 3.73459 15.8907 4.20596 16.3808 4.81865C16.871 5.43133 17.1894 6.16331 17.3036 6.93958L1.36681 6.96747Z" fill="white"/>
</svg>
