<svg width="20" height="20" viewBox="0 0 20 20" fill="none" xmlns="http://www.w3.org/2000/svg">
<path opacity="0.1" d="M10.4762 19.4363C9.20808 19.3484 7.98466 18.932 6.92622 18.228C4.41567 16.7284 2.35228 14.5842 0.950258 12.0179C-0.361082 9.45139 -0.267415 7.52184 1.25936 6.11684C1.68526 5.6804 2.25357 5.4112 2.86107 5.35813C3.18654 5.32083 3.5161 5.36953 3.81687 5.49937C4.11765 5.62921 4.37911 5.83565 4.57518 6.0981L6.36422 8.79572C6.42786 8.96763 6.46879 9.14712 6.48599 9.32962C6.5363 9.98196 5.96717 10.4675 5.44539 10.8622L5.17087 11.0699C5.96347 12.1594 7.1386 13.3717 8.24354 14.1426C8.5065 13.8854 8.82916 13.4879 9.12144 13.2647C9.34721 13.1145 9.68811 12.9666 9.95827 12.9436C10.2284 12.9207 10.5 12.9664 10.7478 13.0763L10.8602 13.1419L13.4736 14.9497C13.6473 15.1114 13.8042 15.2903 13.9419 15.4836C14.1447 15.9175 14.1813 16.4107 14.0449 16.8698C13.9395 17.2827 13.7493 17.6691 13.4864 18.0045C13.2236 18.3399 12.8938 18.617 12.5182 18.8181C11.9062 19.2057 11.2004 19.4194 10.4762 19.4363Z" fill="#092E40" fill-opacity="0.5"/>
<path d="M2.85791 5.21533C3.18674 5.17771 3.51982 5.22682 3.82373 5.35791C4.12783 5.48919 4.39305 5.69805 4.59131 5.96338L6.3999 8.69189C6.46425 8.86574 6.50556 9.04737 6.52295 9.23193C6.5488 9.56761 6.45841 9.90217 6.26709 10.1792L5.52881 11.0405C6.3303 12.1422 7.3099 13.1028 8.42725 13.8823C8.69312 13.6224 8.97451 13.3785 9.27002 13.1528C9.49831 13.001 9.76149 12.9094 10.0347 12.8862C10.3079 12.8631 10.5829 12.9098 10.8335 13.021L10.9468 13.0874L13.5894 14.9155C13.7649 15.079 13.9238 15.2593 14.063 15.4546C14.268 15.8934 14.3054 16.3926 14.1675 16.8569C14.0608 17.2744 13.8678 17.6652 13.6021 18.0044C13.3364 18.3434 13.0032 18.6234 12.6235 18.8267C12.0047 19.2186 11.2904 19.4355 10.5581 19.4526C9.2758 19.3637 8.03853 18.9418 6.96826 18.23C4.4297 16.7136 2.34304 14.5456 0.925293 11.9507C-0.400787 9.35536 -0.306099 7.40373 1.23779 5.98291C1.66849 5.54156 2.24358 5.26899 2.85791 5.21533ZM3.1792 6.59814C3.00099 6.60238 2.82516 6.64218 2.6626 6.71533C2.49994 6.78854 2.35333 6.89421 2.23193 7.0249C1.54061 7.66903 0.906175 8.73975 2.23193 11.3062C3.52115 13.6552 5.41468 15.6177 7.71631 16.9897C9.70526 18.1263 10.8044 18.2964 11.9409 17.6431C12.2226 17.5197 12.4621 17.3165 12.6304 17.0591C12.7986 16.8017 12.8882 16.5013 12.8882 16.1938L12.728 16.0229L10.2173 14.3472H10.1128C9.85697 14.5368 9.41171 14.9718 9.26025 15.1138C9.10341 15.2834 8.89514 15.3967 8.66748 15.436C8.43983 15.4754 8.20517 15.4387 8.00049 15.3315C6.4879 14.346 5.19793 13.0551 4.2124 11.5425C4.09464 11.3441 4.04669 11.1119 4.07764 10.8833C4.10859 10.6546 4.21597 10.4427 4.38232 10.2827C4.56909 10.0772 5.17881 9.35766 5.19678 9.33643C5.19076 9.31489 5.19084 9.29157 5.19678 9.27002L3.4165 6.76904C3.3558 6.69042 3.27301 6.63078 3.1792 6.59814ZM8.84814 0.212402C10.6424 -0.18014 12.5135 -0.0262911 14.2192 0.654785C15.9248 1.33587 17.3871 2.51249 18.4175 4.03271C19.4479 5.55305 19.9988 7.34748 19.9995 9.18408C20.0038 10.4247 19.7538 11.6532 19.2651 12.7935C18.7764 13.9338 18.0591 14.9624 17.1577 15.8149C17.0305 15.9213 16.8694 15.9787 16.7036 15.9761C16.6079 15.9771 16.5124 15.9579 16.4243 15.9204C16.3365 15.8829 16.2573 15.8278 16.1919 15.7583C16.0589 15.6252 15.984 15.4445 15.9839 15.2563C15.9839 15.0682 16.059 14.8876 16.1919 14.7544C16.9525 14.0325 17.5571 13.1621 17.9692 12.1978C18.3814 11.2334 18.5923 10.1947 18.5884 9.146C18.5858 7.09513 17.7734 5.12796 16.3276 3.67334C14.8818 2.21867 12.9196 1.39441 10.8687 1.37939C9.805 1.36753 8.75036 1.57718 7.77197 1.99463C6.79365 2.41207 5.91249 3.02816 5.18506 3.8042C5.0526 3.90733 4.88796 3.96035 4.72021 3.95361C4.55237 3.94685 4.39185 3.88065 4.26807 3.76709C4.14451 3.65362 4.06564 3.49991 4.04443 3.3335C4.02326 3.16685 4.06137 2.99784 4.15283 2.85693C5.41835 1.52581 7.05389 0.604948 8.84814 0.212402ZM8.89209 5.27295C9.12168 5.25408 9.35269 5.28389 9.56982 5.36084C9.787 5.43783 9.98538 5.55994 10.1519 5.71924C10.3183 5.87848 10.4492 6.07119 10.5356 6.28467C10.6221 6.49826 10.6626 6.72824 10.6538 6.9585C10.6538 7.98149 9.88618 8.79644 8.93896 9.74365H10.521C10.563 9.74123 10.6049 9.74938 10.6431 9.76709C10.6813 9.78486 10.7154 9.81145 10.7407 9.84521C10.766 9.87895 10.7822 9.91878 10.7886 9.96045C10.7949 10.0021 10.791 10.0448 10.7769 10.0845V10.6343C10.7767 10.702 10.7495 10.7671 10.7017 10.8149C10.6537 10.8628 10.5887 10.8891 10.521 10.8892H7.3667C7.29963 10.8868 7.23545 10.8595 7.18799 10.812C7.1408 10.7647 7.11329 10.7011 7.11084 10.6343V10.2261C7.11119 10.192 7.11877 10.1583 7.1333 10.1274C7.148 10.0964 7.16944 10.0684 7.1958 10.0464L7.71729 9.53467C8.95779 8.35097 9.47887 7.75443 9.479 7.12939C9.4917 7.03226 9.48154 6.93297 9.44971 6.84033C9.41786 6.74782 9.36505 6.66394 9.29541 6.59521C9.22575 6.52648 9.14129 6.47446 9.04834 6.44385C8.95535 6.41326 8.85617 6.40451 8.75928 6.41846C8.43004 6.433 8.1155 6.56046 7.86865 6.77881C7.83458 6.79414 7.79762 6.80218 7.76025 6.80225C7.72272 6.80225 7.68511 6.79422 7.65088 6.77881C7.61238 6.77258 7.57636 6.7559 7.54639 6.73096C7.51639 6.70596 7.49306 6.67302 7.47998 6.63623L7.26221 6.13428C7.24017 6.08328 7.23471 6.02644 7.24658 5.97217C7.25848 5.91787 7.28725 5.86867 7.32861 5.83154C7.76843 5.46863 8.32188 5.27119 8.89209 5.27295ZM14.8403 5.35791C14.8968 5.36609 14.9493 5.39292 14.9888 5.43408C15.0281 5.47524 15.0524 5.52881 15.0581 5.58545V8.42725H15.5132C15.5498 8.42447 15.5871 8.42914 15.6216 8.44189C15.6561 8.4547 15.6874 8.47546 15.7134 8.50146C15.7393 8.5275 15.7592 8.55877 15.772 8.59326C15.7848 8.62788 15.7904 8.66486 15.7876 8.70166V9.22217C15.7876 9.29 15.7604 9.35585 15.7124 9.40381C15.6645 9.45157 15.5994 9.47801 15.5317 9.47803H15.0962V10.5483C15.0962 10.6161 15.0688 10.6811 15.021 10.729C14.9731 10.7769 14.9081 10.8042 14.8403 10.8042H14.1489C14.0811 10.8042 14.0162 10.777 13.9683 10.729C13.9203 10.681 13.8931 10.6161 13.8931 10.5483V9.45947H11.9136C11.8458 9.45947 11.7809 9.43215 11.7329 9.38428C11.685 9.33633 11.6577 9.27142 11.6577 9.20361V8.76807C11.6588 8.71426 11.6749 8.66159 11.7046 8.6167L13.9028 5.4624C13.9273 5.43036 13.9586 5.40428 13.9946 5.38623C14.0307 5.36818 14.0705 5.35827 14.1108 5.35791H14.8403ZM13.0405 8.42725H13.9116L13.8931 7.20459L13.0405 8.42725Z" fill="#092E40" fill-opacity="0.5"/>
</svg>
