<svg width="78" height="78" viewBox="0 0 78 78" fill="none" xmlns="http://www.w3.org/2000/svg">
<rect x="1.5" y="1.5" width="75" height="75" rx="37.5" fill="#FF9800"/>
<rect x="1.5" y="1.5" width="75" height="75" rx="37.5" stroke="white" stroke-width="3"/>
<g clip-path="url(#clip0_699_1102)">
<g clip-path="url(#clip1_699_1102)">
<g clip-path="url(#clip2_699_1102)">
<path d="M57.8281 39C57.8281 49.3553 49.3553 57.8281 39 57.8281C28.6447 57.8281 20.1719 49.3553 20.1719 39C20.1719 28.6447 28.6447 20.1719 39 20.1719C49.3553 20.1719 57.8281 28.6447 57.8281 39Z" stroke="white" stroke-width="2.5" stroke-miterlimit="10" stroke-linecap="round" stroke-linejoin="round"/>
<path d="M28.228 48.1152C28.6857 47.6575 29.4276 47.6575 29.8852 48.1152C30.3429 48.5728 30.3429 49.3148 29.8852 49.7725C29.4276 50.2301 28.6857 50.2301 28.228 49.7725C27.7704 49.3148 27.7704 48.5728 28.228 48.1152Z" fill="white"/>
<path d="M48.1148 28.2275C48.5723 27.7699 49.3144 27.7699 49.772 28.2275C50.2297 28.6852 50.2297 29.4272 49.772 29.8848C49.3144 30.3425 48.5723 30.3425 48.1148 29.8848C47.6571 29.4272 47.6571 28.6852 48.1148 28.2275Z" fill="white"/>
<path d="M29.8852 28.2275C30.3429 28.6852 30.3429 29.4272 29.8852 29.8848C29.4277 30.3425 28.6857 30.3425 28.228 29.8848C27.7704 29.4272 27.7704 28.6852 28.228 28.2275C28.6857 27.7699 29.4277 27.7699 29.8852 28.2275Z" fill="white"/>
<path d="M49.772 48.1152C50.2297 48.5728 50.2297 49.3148 49.772 49.7725C49.3144 50.2301 48.5724 50.2301 48.1148 49.7725C47.6571 49.3148 47.6571 48.5728 48.1148 48.1152C48.5724 47.6575 49.3144 47.6575 49.772 48.1152Z" fill="white"/>
<path d="M39 24.9375V27.2812" stroke="white" stroke-width="2.5" stroke-miterlimit="10" stroke-linecap="round" stroke-linejoin="round"/>
<path d="M39 50.7188V53.0625" stroke="white" stroke-width="2.5" stroke-miterlimit="10" stroke-linecap="round" stroke-linejoin="round"/>
<path d="M24.9375 39H27.2812" stroke="white" stroke-width="2.5" stroke-miterlimit="10" stroke-linecap="round" stroke-linejoin="round"/>
<path d="M50.7188 39H53.0625" stroke="white" stroke-width="2.5" stroke-miterlimit="10" stroke-linecap="round" stroke-linejoin="round"/>
<path d="M39 31.9688V39L46.0312 46.0312" stroke="white" stroke-width="2.5" stroke-miterlimit="10" stroke-linecap="round" stroke-linejoin="round"/>
</g>
</g>
</g>
<defs>
<clipPath id="clip0_699_1102">
<rect width="40" height="40" fill="white" transform="translate(19 19)"/>
</clipPath>
<clipPath id="clip1_699_1102">
<rect width="40" height="40" fill="white" transform="translate(19 19)"/>
</clipPath>
<clipPath id="clip2_699_1102">
<rect width="40" height="40" fill="white" transform="translate(19 19)"/>
</clipPath>
</defs>
</svg>
