<svg width="16" height="16" viewBox="0 0 16 16" fill="none" xmlns="http://www.w3.org/2000/svg">
<path d="M6.93326 13.3335C6.86214 13.3335 6.79103 13.3157 6.71992 13.2802L1.38659 7.4135C1.27992 7.30683 1.27103 7.19127 1.35992 7.06683C1.44881 6.94238 1.56437 6.91572 1.70659 6.98683L6.61326 9.28016C6.64881 9.28016 6.68437 9.26238 6.71992 9.22683L14.1866 1.44016C14.2577 1.36905 14.3288 1.3335 14.3999 1.3335C14.471 1.3335 14.5333 1.36016 14.5866 1.4135C14.6399 1.46683 14.6755 1.52905 14.6933 1.60016C14.711 1.67127 14.7021 1.72461 14.6666 1.76016L7.14659 13.2802C7.07548 13.3157 7.00437 13.3335 6.93326 13.3335Z" fill="#FF9800"/>
</svg>
