<svg width="18" height="18" viewBox="0 0 18 18" fill="none" xmlns="http://www.w3.org/2000/svg">
<path d="M14.9941 9.75586H9H3.00586C2.79492 9.74414 2.61621 9.66797 2.46973 9.52734C2.32324 9.38672 2.25 9.21094 2.25 9C2.25 8.78906 2.32324 8.61328 2.46973 8.47266C2.61621 8.33203 2.79492 8.25586 3.00586 8.24414H14.9941C15.2051 8.25586 15.3838 8.33203 15.5303 8.47266C15.6768 8.61328 15.75 8.78906 15.75 9C15.75 9.21094 15.6768 9.38672 15.5303 9.52734C15.3838 9.66797 15.2051 9.74414 14.9941 9.75586ZM8.0332 12.9727C8.17383 13.125 8.24414 13.3008 8.24414 13.5C8.24414 13.6992 8.16797 13.8721 8.01562 14.0186C7.86328 14.165 7.69043 14.2383 7.49707 14.2383C7.30371 14.2383 7.13086 14.168 6.97852 14.0273L2.47852 9.52734C2.32617 9.375 2.25 9.19922 2.25 9C2.25 8.80078 2.32617 8.625 2.47852 8.47266L6.97852 3.97266C7.13086 3.83203 7.30371 3.76172 7.49707 3.76172C7.69043 3.76172 7.86328 3.83496 8.01562 3.98145C8.16797 4.12793 8.24414 4.30078 8.24414 4.5C8.24414 4.69922 8.17383 4.875 8.0332 5.02734L4.06055 9L8.0332 12.9727Z" fill="white"/>
</svg>
