<svg width="20" height="20" viewBox="0 0 20 20" fill="none" xmlns="http://www.w3.org/2000/svg">
<path opacity="0.1" d="M19.8916 10.0171C19.8956 8.37174 19.4903 6.7512 18.7123 5.30136C17.9343 3.85153 16.808 2.61793 15.4347 1.7116C14.0615 0.805264 12.4844 0.254656 10.8454 0.109335C9.20643 -0.0359855 7.55706 0.228543 6.04574 0.879109C4.53443 1.52968 3.20861 2.54586 2.18765 3.83618C1.16668 5.1265 0.482605 6.65046 0.197007 8.27088C-0.0885915 9.89129 0.0332495 11.5573 0.551562 13.1189C1.06987 14.6805 1.96839 16.0888 3.16622 17.2168L3.52621 17.5306H3.58159C3.71081 17.6506 3.8585 17.7522 3.99695 17.8629C4.13541 17.9737 4.20002 18.0199 4.30156 18.0845C4.44659 18.1914 4.59759 18.29 4.75384 18.3798L5.06768 18.5737C5.22459 18.666 5.39074 18.7491 5.55689 18.8321L5.87995 18.989L6.38762 19.2013L6.72914 19.3306L7.24604 19.4967L7.64295 19.5982L8.12293 19.709L8.63983 19.7829L9.03673 19.8382C9.35056 19.8382 9.6644 19.8844 9.95977 19.8844C10.2551 19.8844 10.5874 19.8844 10.8828 19.8382L11.2797 19.7829L11.7966 19.709L12.2766 19.5982L12.6827 19.4875L13.1904 19.3306L13.5688 19.2475L14.0673 19.0352L14.3996 18.8783L14.8795 18.6198L15.1934 18.426L15.6457 18.1398L15.9503 17.9091C16.0887 17.7983 16.2364 17.6968 16.3656 17.5768H16.421L16.781 17.263C17.7698 16.3339 18.5564 15.211 19.0916 13.9643C19.6268 12.7176 19.8992 11.3739 19.8916 10.0171Z" fill="#092E40"/>
<path d="M19.9998 10.0241C20.0038 8.36586 19.5954 6.73268 18.8114 5.27156C18.0273 3.81043 16.8922 2.56722 15.5082 1.65382C14.1242 0.740431 12.5349 0.185533 10.8831 0.0390807C9.23141 -0.107372 7.56918 0.159217 6.04609 0.814851C4.523 1.47049 3.18686 2.49458 2.15794 3.79496C1.12902 5.09533 0.439617 6.63117 0.151793 8.2642C-0.13603 9.89724 -0.0132395 11.5762 0.509111 13.15C1.03146 14.7238 1.93697 16.143 3.14414 17.2798L3.50693 17.5961H3.56274C3.69297 17.717 3.84181 17.8194 3.98134 17.931C4.12088 18.0426 4.18599 18.0891 4.28832 18.1542C4.43448 18.262 4.58666 18.3614 4.74413 18.4519L5.06041 18.6473C5.21854 18.7403 5.38598 18.824 5.55343 18.9077L5.87901 19.0659L6.39063 19.2798L6.73481 19.41L7.25574 19.5775L7.65574 19.6798L8.13946 19.7914L8.66038 19.8659L9.06038 19.9217C9.37666 19.9217 9.69294 19.9682 9.99061 19.9682C10.2883 19.9682 10.6232 19.9682 10.9208 19.9217L11.3208 19.8659L11.8418 19.7914L12.3255 19.6798L12.7348 19.5682L13.2464 19.41L13.6278 19.3263L14.1301 19.1124L14.465 18.9542L14.9487 18.6938L15.265 18.4984L15.7208 18.2101L16.0278 17.9775C16.1673 17.8659 16.3162 17.7635 16.4464 17.6426H16.5022L16.865 17.3263C17.8615 16.3901 18.6542 15.2584 19.1936 14.002C19.7329 12.7455 20.0074 11.3914 19.9998 10.0241ZM1.39531 10.0241C1.39531 7.74198 2.30187 5.55336 3.91554 3.93969C5.52922 2.32601 7.71783 1.41946 9.99991 1.41946C12.282 1.41946 14.4706 2.32601 16.0843 3.93969C17.698 5.55336 18.6045 7.74198 18.6045 10.0241C18.6072 12.203 17.7749 14.3002 16.2789 15.8845C15.6787 14.7385 14.7762 13.7787 13.6694 13.109C12.5626 12.4393 11.2936 12.0853 9.99991 12.0853C8.70625 12.0853 7.43725 12.4393 6.33043 13.109C5.2236 13.7787 4.32116 14.7385 3.72088 15.8845C2.22489 14.3002 1.39267 12.203 1.39531 10.0241ZM15.051 16.9822L14.6883 17.2333L14.4278 17.3822C13.971 17.661 13.4881 17.8946 12.9859 18.0798L12.6883 18.1915L12.2883 18.3124L11.9255 18.4054L11.5534 18.4798L11.0976 18.5542H10.7906C10.5301 18.5542 10.2697 18.5542 9.99991 18.5542C9.73014 18.5542 9.46968 18.5542 9.20922 18.5542H8.90224L8.44643 18.4798L8.07434 18.3961L7.71155 18.3031L7.31155 18.1821L7.02318 18.0798C6.51649 17.8876 6.02778 17.6511 5.56273 17.3729L5.34878 17.2333L4.98599 16.9822C4.93737 16.9368 4.8844 16.8962 4.82785 16.8612C5.27624 15.8542 6.00693 14.9987 6.93146 14.3983C7.856 13.7979 8.93474 13.4783 10.0371 13.4783C11.1395 13.4783 12.2182 13.7979 13.1428 14.3983C14.0673 14.9987 14.798 15.8542 15.2464 16.8612C15.1769 16.894 15.1114 16.9346 15.051 16.9822ZM9.99991 11.4008C10.7834 11.4026 11.5498 11.1716 12.2017 10.7371C12.8537 10.3025 13.3618 9.68407 13.6617 8.9602C13.9615 8.23633 14.0395 7.4397 13.8857 6.67144C13.7319 5.90318 13.3533 5.19793 12.798 4.64522C12.2427 4.09251 11.5357 3.71727 10.7667 3.56714C9.99769 3.417 9.20144 3.49874 8.479 3.80198C7.75656 4.10522 7.14051 4.61628 6.70906 5.27029C6.27761 5.9243 6.05022 6.69176 6.05575 7.47524C6.05575 8.52215 6.47099 9.52632 7.2104 10.2675C7.94981 11.0086 8.953 11.4262 9.99991 11.4287V11.4008ZM9.99991 4.88921C10.5051 4.8874 10.9994 5.03519 11.4207 5.31395C11.842 5.5927 12.1713 5.98994 12.3671 6.45559C12.563 6.92123 12.6166 7.43443 12.5211 7.93049C12.4257 8.42655 12.1856 8.88325 11.831 9.24303C11.4764 9.6028 11.0232 9.84953 10.5286 9.95213C10.034 10.0547 9.52004 10.0086 9.05161 9.8195C8.58318 9.63044 8.18121 9.30692 7.89637 8.88973C7.61154 8.47254 7.4566 7.98036 7.45109 7.47524C7.45109 6.79925 7.71962 6.15094 8.19762 5.67295C8.67562 5.19495 9.32392 4.92642 9.99991 4.92642V4.88921Z" fill="#092E40"/>
</svg>
