<svg width="14" height="12" viewBox="0 0 14 12" fill="none" xmlns="http://www.w3.org/2000/svg">
<path d="M5.63394 12C5.56283 12 5.49172 11.9822 5.42061 11.9467L0.0872727 6.08C-0.0193939 5.97333 -0.0282828 5.85778 0.0606061 5.73333C0.149495 5.60889 0.265051 5.58222 0.407273 5.65333L5.31394 7.94667C5.34949 7.94667 5.38505 7.92889 5.42061 7.89333L12.8873 0.106667C12.9584 0.0355549 13.0295 0 13.1006 0C13.1717 0 13.2339 0.0266666 13.2873 0.0799999C13.3406 0.133333 13.3762 0.195556 13.3939 0.266666C13.4117 0.337777 13.4028 0.39111 13.3673 0.426666L5.84727 11.9467C5.77616 11.9822 5.70505 12 5.63394 12Z" fill="#1FB8DA"/>
</svg>
